<svg width="33" height="33" viewBox="0 0 33 33" fill="none" xmlns="http://www.w3.org/2000/svg">
<path d="M4.4682 8.93647C2.00442 8.93647 0 6.93205 0 4.4682C6.48499e-05 2.00442 2.00449 0 4.4682 0C6.93192 0 8.93641 2.00442 8.93641 4.4682C8.93641 5.35024 8.67847 6.17266 8.23555 6.86605L13.344 11.9745C14.2329 11.3541 15.3125 10.9888 16.4764 10.9888C17.6403 10.9888 18.7199 11.354 19.6088 11.9745L25.0246 6.55874C24.7476 6.05884 24.5893 5.48437 24.5893 4.87355C24.5893 2.94982 26.1543 1.38471 28.078 1.38471C30.0018 1.38471 31.5668 2.94976 31.5668 4.87355C31.5668 6.79721 30.0018 8.36233 28.078 8.36233C27.4678 8.36233 26.894 8.20442 26.3944 7.92791L20.9783 13.3441C21.5987 14.233 21.964 15.3126 21.964 16.4764C21.964 17.6403 21.5986 18.7199 20.9782 19.6089L26.1338 24.7645C26.8272 24.3215 27.6496 24.0636 28.5317 24.0636C30.9955 24.0635 33 26.068 33 28.5317C33 30.9956 30.9956 33 28.5318 33C26.0681 33 24.0636 30.9956 24.0636 28.5317C24.0636 27.6498 24.3215 26.8273 24.7645 26.134L19.6089 20.9784C18.7199 21.5988 17.6403 21.964 16.4765 21.964C15.3127 21.964 14.2331 21.5988 13.3442 20.9784L8.12211 26.2004C8.39855 26.6999 8.55646 27.2737 8.55646 27.8839C8.55646 29.8076 6.99141 31.3728 5.06768 31.3728C3.14401 31.3728 1.57891 29.8077 1.57891 27.8839C1.57891 25.9603 3.14395 24.3951 5.06768 24.3951C5.67856 24.3951 6.25303 24.5534 6.75293 24.8305L11.9746 19.6088C11.3542 18.7199 10.9889 17.6403 10.9889 16.4764C10.9889 15.3126 11.3542 14.233 11.9746 13.344L6.86618 8.23555C6.17273 8.67847 5.35024 8.93647 4.4682 8.93647ZM16.4764 17.7669C17.188 17.7669 17.7669 17.1879 17.7669 16.4764C17.7669 15.7649 17.188 15.186 16.4764 15.186C15.7649 15.186 15.186 15.7649 15.186 16.4764C15.186 17.188 15.7649 17.7669 16.4764 17.7669Z" fill="white"/>
</svg>
