<svg width="44" height="44" viewBox="0 0 44 44" fill="none" xmlns="http://www.w3.org/2000/svg">
<path fill-rule="evenodd" clip-rule="evenodd" d="M20.7488 34.0051C19.6007 34.2478 18.4112 34.375 17.1875 34.375C7.7 34.375 0 26.6736 0 17.1875C0 7.70138 7.7 0 17.1875 0C26.675 0 34.375 7.70138 34.375 17.1875C34.375 18.4078 34.2512 19.5986 34.0037 20.7467C39.655 21.5676 44 26.4364 44 32.3125C44 38.7633 38.7612 44 32.3125 44C26.4344 44 21.5669 39.655 20.7488 34.0051ZM32.3125 23.375C37.2419 23.375 41.25 27.3797 41.25 32.3125C41.25 37.2453 37.2419 41.25 32.3125 41.25C27.3831 41.25 23.375 37.2453 23.375 32.3125C23.375 27.3797 27.3831 23.375 32.3125 23.375ZM30.9375 34.4932L28.1875 31.7432L26.2419 33.6875L32.3125 39.7568L38.3831 33.6875L36.4375 31.7432L33.6875 34.4932V24.75H30.9375V34.4932ZM24.0625 7.5625H10.3125V10.3125H14.4375C16.2319 10.3125 17.765 11.4606 18.3288 13.0625H10.3125V15.8125H18.3288C17.765 17.4144 16.2319 18.5625 14.4375 18.5625H10.3125V21.23L19.0094 29.2009L20.8656 27.1741L14.4719 21.3118C17.7857 21.296 20.5425 18.9399 21.175 15.8125H24.0625V13.0625H21.175C20.9688 12.0464 20.5356 11.1121 19.9375 10.3125H24.0625V7.5625Z" fill="white"/>
</svg>
