<svg width="32" height="32" viewBox="0 0 32 32" fill="none" xmlns="http://www.w3.org/2000/svg">
<path d="M31.9535 12.3527L30.4289 3.91994C30.2138 2.73013 29.2699 1.78619 28.0801 1.57107L19.6473 0.04651C18.7074 -0.123427 17.7437 0.178322 17.0687 0.853384L0.853436 17.0687C0.303124 17.619 0 18.3507 0 19.1289C0 19.9072 0.303062 20.6389 0.853436 21.1892L10.8109 31.1466C11.3612 31.6969 12.0929 32 12.8712 32C13.6494 32 14.3812 31.6969 14.9314 31.1466L31.1466 14.9314C31.8217 14.2562 32.1233 13.2922 31.9535 12.3527ZM12.0033 24.1717C11.9639 24.3048 11.8844 24.4312 11.7645 24.551C11.6445 24.671 11.5182 24.7505 11.3852 24.7898C11.2522 24.8292 11.1428 24.8057 11.0565 24.7195L7.48811 21.1511C7.40199 21.065 7.37286 20.9611 7.40099 20.8393C7.42899 20.7176 7.49555 20.6043 7.60049 20.4993L9.55048 18.5493C9.63661 18.4632 9.73973 18.435 9.85948 18.4649C9.97948 18.4949 10.0899 18.5605 10.191 18.6617C10.2997 18.7704 10.3681 18.8856 10.3962 19.0073C10.4242 19.1292 10.397 19.2312 10.3147 19.3135L8.85917 20.769L9.80892 21.7188L10.6575 20.8702C10.7398 20.7879 10.8382 20.7569 10.9525 20.7775C11.0667 20.7981 11.1707 20.8553 11.2643 20.9489C11.3505 21.0351 11.4048 21.1344 11.4273 21.2467C11.4497 21.3591 11.4179 21.4585 11.3318 21.5446L10.4832 22.3932L11.933 23.843C12.0194 23.9292 12.0427 24.0388 12.0033 24.1717ZM16.7799 19.3108C16.7593 19.5262 16.6834 19.6995 16.5523 19.8307C16.4211 19.9618 16.2732 20.0011 16.1083 19.9487L13.8437 19.2238L13.4728 19.5947L14.8271 20.9489C14.9133 21.0352 14.9367 21.1448 14.8973 21.2777C14.8579 21.4108 14.7783 21.5372 14.6585 21.657C14.5386 21.777 14.4122 21.8565 14.2793 21.8958C14.1462 21.9353 14.0368 21.9118 13.9505 21.8255L10.3765 18.2515C10.3054 18.1803 10.2689 18.0933 10.267 17.9902C10.2652 17.8872 10.3036 17.7963 10.3823 17.7177L11.5455 16.5544C12.4671 15.6329 13.3288 15.5729 14.1305 16.3745C14.7149 16.959 14.8685 17.566 14.5913 18.1952L16.5187 18.7517C16.5638 18.7592 16.6068 18.7835 16.648 18.8247C16.7565 18.9335 16.8005 19.0954 16.7799 19.3108ZM19.8847 16.4309L17.8842 18.4314C17.7793 18.5363 17.666 18.6027 17.5442 18.6308C17.4224 18.659 17.3186 18.6299 17.2323 18.5437L13.664 14.9753C13.5778 14.8892 13.5487 14.7853 13.5768 14.6635C13.6049 14.5417 13.6714 14.4285 13.7763 14.3235L15.7769 12.323C15.863 12.2369 15.9662 12.2087 16.0859 12.2386C16.2059 12.2686 16.3163 12.3342 16.4175 12.4354C16.5261 12.5441 16.5945 12.6593 16.6227 12.781C16.6507 12.9029 16.6235 13.0049 16.5411 13.0872L15.035 14.5933L15.9848 15.543L16.8278 14.7C16.9101 14.6177 17.0085 14.5867 17.1228 14.6073C17.237 14.6279 17.3411 14.6851 17.4347 14.7787C17.5208 14.8649 17.5752 14.9642 17.5976 15.0765C17.62 15.1889 17.5882 15.2883 17.5021 15.3744L16.6591 16.2174L17.6143 17.1727L19.1204 15.6666C19.2027 15.5843 19.3049 15.5571 19.4267 15.5851C19.5485 15.6133 19.6635 15.6816 19.7722 15.7903C19.8733 15.8914 19.939 16.0019 19.969 16.1218C19.999 16.2417 19.9708 16.3447 19.8847 16.4309ZM22.9135 13.402L20.9129 15.4026C20.808 15.5075 20.6946 15.574 20.5728 15.6021C20.4511 15.6302 20.3473 15.6012 20.261 15.5149L16.6927 11.9466C16.6065 11.8604 16.5774 11.7566 16.6055 11.6348C16.6336 11.513 16.7001 11.3997 16.805 11.2947L18.8055 9.29424C18.8917 9.20812 18.9948 9.17999 19.1145 9.20987C19.2345 9.23993 19.3449 9.30543 19.4461 9.40668C19.5547 9.51537 19.6231 9.63055 19.6513 9.75224C19.6793 9.87412 19.6521 9.97612 19.5697 10.0585L18.0637 11.5646L19.0134 12.5143L19.8564 11.6713C19.9387 11.589 20.0371 11.558 20.1514 11.5786C20.2656 11.5992 20.3696 11.6564 20.4632 11.75C20.5494 11.8362 20.6037 11.9355 20.6262 12.0478C20.6486 12.1602 20.6168 12.2596 20.5307 12.3457L19.6877 13.1887L20.643 14.1439L22.149 12.6379C22.2313 12.5555 22.3335 12.5284 22.4553 12.5564C22.5771 12.5845 22.6922 12.6529 22.8009 12.7615C22.902 12.8626 22.9676 12.9732 22.9976 13.093C23.0279 13.2129 22.9997 13.3159 22.9135 13.402ZM26.1231 9.48374C25.6224 9.98449 24.9646 10.2349 24.3068 10.2349C23.649 10.2349 22.9912 9.98449 22.4905 9.48368C21.4888 8.48212 21.4888 6.8525 22.4905 5.85094C23.492 4.84938 25.1216 4.84931 26.1231 5.85094C26.6084 6.33612 26.8755 6.98118 26.8755 7.66731C26.8755 8.35343 26.6083 8.99849 26.1231 9.48374Z" fill="white"/>
</svg>
