<svg width="41" height="35" viewBox="0 0 41 35" fill="none" xmlns="http://www.w3.org/2000/svg">
<path d="M40.2135 3.79993V0.333252H36.7468C36.7468 2.24825 38.2985 3.79993 40.2135 3.79993Z" fill="white"/>
<path d="M3.46668 0.333252H0V3.79993C1.915 3.79993 3.46668 2.24825 3.46668 0.333252Z" fill="white"/>
<path d="M17.3334 24.6C17.3334 22.7752 17.705 21.037 18.3762 19.4569C16.5562 18.8564 15.2534 17.3561 15.2534 15.5867H18.0268C18.0268 16.255 18.8234 16.8437 19.7955 16.9511C20.3668 16.1531 21.0247 15.4237 21.7562 14.772C21.3693 14.4316 20.7647 14.2 20.1068 14.2C17.4312 14.2 15.2534 12.3342 15.2534 10.04C15.2534 8.15894 16.7177 6.56773 18.7201 6.05536V3.79993H21.4934V6.05536C23.4958 6.56773 24.9601 8.15894 24.9601 10.04H22.1868C22.1868 9.30156 21.2147 8.65329 20.1068 8.65329C18.9988 8.65329 18.0268 9.30156 18.0268 10.04C18.0268 10.7784 18.9988 11.4266 20.1068 11.4266C21.7153 11.4266 23.1401 12.104 24.0234 13.1406C25.9391 12.0541 28.1481 11.4266 30.5068 11.4266C34.3541 11.4266 37.8049 13.0865 40.2135 15.7163V5.87994C37.1504 5.87994 34.6668 3.39641 34.6668 0.333252H5.54669C5.54669 3.39641 3.06316 5.87994 0 5.87994V19.7467C3.06316 19.7467 5.54669 22.2302 5.54669 25.2934H17.3688C17.3563 25.0625 17.3334 24.8344 17.3334 24.6Z" fill="white"/>
<path d="M0 21.8267V25.2933H3.46668C3.46668 23.3783 1.915 21.8267 0 21.8267Z" fill="white"/>
<path d="M30.5068 14.2C24.7632 14.2 20.1068 18.8564 20.1068 24.6C20.1068 30.3436 24.7632 35 30.5068 35C36.2504 35 40.9068 30.3436 40.9068 24.6C40.9068 18.8564 36.2504 14.2 30.5068 14.2ZM35.6472 27.7796L33.6864 29.7404L30.5068 26.5608L27.3272 29.7404L25.3664 27.7796L28.546 24.6L25.3664 21.4204L27.3272 19.4596L30.5068 22.6392L33.6864 19.4596L35.6472 21.4204L32.4676 24.6L35.6472 27.7796Z" fill="white"/>
</svg>
