<svg width="44" height="44" viewBox="0 0 44 44" fill="none" xmlns="http://www.w3.org/2000/svg">
<path d="M32.7983 11.718C29.2929 11.718 26.4976 13.4789 24.7702 14.9567L24.7093 15.009L23.7255 16.0786L25.8972 19.6475L27.5045 18.0358C29.1865 16.6155 31.064 15.835 32.7983 15.835C36.2977 15.835 39.1452 18.6053 39.1452 22.0104C39.1452 25.4155 36.2977 28.1859 32.7983 28.1859C27.4805 28.1859 23.8662 21.157 23.8302 21.0858C23.6209 20.663 19.0373 11.718 11.1842 11.718C5.41452 11.718 0.720337 16.335 0.720337 22.0104C0.720337 27.6858 5.41452 32.3028 11.1842 32.3028C14.0104 32.3028 16.7919 31.1784 19.2286 29.0504L19.2809 29.0041L20.257 27.9423L18.0844 24.3734L16.4694 25.9927C14.7866 27.4482 13.0077 28.1859 11.1842 28.1859C7.68485 28.1859 4.83729 25.4155 4.83729 22.0104C4.83729 18.6053 7.68485 15.835 11.1842 15.835C16.502 15.835 20.1163 22.8638 20.1523 22.935C20.3616 23.3579 24.9452 32.3028 32.7983 32.3028C38.568 32.3028 43.2622 27.6858 43.2622 22.0104C43.2622 16.335 38.568 11.718 32.7983 11.718Z" fill="white"/>
</svg>
