<svg width="31" height="31" viewBox="0 0 31 31" fill="none" xmlns="http://www.w3.org/2000/svg">
<g clip-path="url(#clip0_3127_18)">
<path d="M1.45573 14.7511L5.17883 12.8975L13.3645 16.9732C14.0267 17.303 14.7703 17.4773 15.5151 17.4773C16.26 17.4773 17.0036 17.303 17.6657 16.9732L25.8514 12.8975L29.5745 14.7511C29.8637 14.8952 30.0464 15.1903 30.0464 15.5133C30.0464 15.8365 29.8637 16.1315 29.5745 16.2756L16.9067 22.583C16.4711 22.8001 15.9932 22.9084 15.5151 22.9084C15.0373 22.9084 14.5592 22.8001 14.1236 22.5833L1.45573 16.2756C1.16659 16.1315 0.983887 15.8365 0.983887 15.5133C0.983887 15.1903 1.16659 14.8952 1.45573 14.7511Z" fill="white"/>
<path d="M1.45573 21.8873L5.17883 20.0334L13.3645 24.1094C14.0267 24.4391 14.7703 24.6131 15.5151 24.6131C16.26 24.6131 17.0036 24.4391 17.6657 24.1094L25.8514 20.0334L29.5745 21.8873C29.8637 22.0311 30.0464 22.3265 30.0464 22.6493C30.0464 22.9723 29.8637 23.2675 29.5745 23.4117L16.9067 29.7191C16.4711 29.9361 15.9932 30.0446 15.5151 30.0446C15.0373 30.0444 14.5592 29.9361 14.1236 29.7191L1.45573 23.4117C1.16659 23.2675 0.983887 22.9723 0.983887 22.6493C0.983887 22.3263 1.16659 22.0311 1.45573 21.8873Z" fill="white"/>
<path d="M29.5745 9.14135L16.9067 15.4489C16.4711 15.6657 15.9932 15.7744 15.5151 15.7744C15.0371 15.7744 14.5592 15.6657 14.1236 15.4489L1.45573 9.14135C1.16659 8.99749 0.983887 8.70215 0.983887 8.37931C0.983887 8.05612 1.16659 7.76078 1.45573 7.61692L14.1236 1.30916C14.995 0.875461 16.0352 0.875461 16.9067 1.30916L29.5745 7.61692C29.8637 7.76078 30.0464 8.05612 30.0464 8.37931C30.0464 8.70215 29.8637 8.99749 29.5745 9.14135Z" fill="white"/>
</g>
<defs>
<clipPath id="clip0_3127_18">
<rect width="31" height="31" fill="white" transform="matrix(-1 0 0 1 31 0)"/>
</clipPath>
</defs>
</svg>
