<svg width="40" height="40" viewBox="0 0 40 40" fill="none" xmlns="http://www.w3.org/2000/svg">
<g clip-path="url(#clip0_3127_25)">
<path d="M38.8281 18.8281H34.0625C33.4148 18.8281 32.8906 19.3522 32.8906 20C32.8906 27.1078 27.1079 32.8906 20 32.8906C12.8921 32.8906 7.10938 27.1078 7.10938 20C7.10938 16.9982 8.13016 14.1554 10.0093 11.8609L10.3984 12.4171C10.6455 12.7707 11.0621 12.9618 11.4981 12.9092C11.9273 12.8577 12.2935 12.5739 12.4503 12.171L15.5208 4.29753C15.6627 3.93245 15.6135 3.5205 15.3891 3.20003C15.1648 2.87956 14.7872 2.74456 14.4027 2.69995L5.95469 2.89331C5.52211 2.90362 5.1307 3.15081 4.935 3.53644C4.74047 3.92214 4.77367 4.38331 5.02086 4.73808L5.87344 5.95347C2.17813 9.67276 0 14.7346 0 20C0 30.9851 9.01484 40 20 40C30.9852 40 40 30.9851 40 20C40 19.3522 39.4759 18.8281 38.8281 18.8281Z" fill="white"/>
<path d="M31.1637 13.5548C31.4884 14.117 32.207 14.3061 32.7648 13.9839L36.824 11.6402C37.3848 11.3163 37.577 10.5999 37.2531 10.0392C36.9281 9.47611 36.2083 9.28384 35.6521 9.61001L31.5929 11.9538C31.0321 12.2776 30.8398 12.994 31.1637 13.5548Z" fill="white"/>
<path d="M26.4453 8.83631C27.0041 9.15912 27.7222 8.96842 28.0463 8.40717L30.3901 4.34795C30.714 3.78717 30.5217 3.07076 29.9609 2.74693C29.3991 2.42193 28.6838 2.6142 28.3599 3.17607L26.0162 7.23529C25.6923 7.79607 25.8845 8.51248 26.4453 8.83631Z" fill="white"/>
<path d="M20 7.10938C20.6477 7.10938 21.1719 6.58523 21.1719 5.9375V1.17188C21.1719 0.524141 20.6477 0 20 0C19.3523 0 18.8281 0.524141 18.8281 1.17188V5.9375C18.8281 6.58523 19.3523 7.10938 20 7.10938Z" fill="white"/>
<path d="M32.4511 16.6641C32.6188 17.2936 33.2667 17.6597 33.8862 17.4926L38.4147 16.2796C39.0395 16.1125 39.4103 15.4693 39.2432 14.8445C39.0773 14.2185 38.4341 13.8489 37.8081 14.016L33.2797 15.229C32.6548 15.3961 32.2841 16.0393 32.4511 16.6641Z" fill="white"/>
<path d="M29.1152 10.8847C29.573 11.3424 30.3145 11.3425 30.7723 10.8847L34.0866 7.57048C34.5443 7.11274 34.5443 6.3711 34.0866 5.91337C33.6288 5.45563 32.8872 5.45563 32.4295 5.91337L29.1152 9.22759C28.6574 9.6854 28.6574 10.427 29.1152 10.8847Z" fill="white"/>
<path d="M23.3359 7.54876C23.9527 7.71509 24.6025 7.35165 24.771 6.72024L25.9841 2.1918C26.1512 1.56696 25.7804 0.923836 25.1555 0.756726C24.5319 0.591961 23.8876 0.96157 23.7205 1.58524L22.5074 6.11368C22.3403 6.73852 22.7111 7.38165 23.3359 7.54876Z" fill="white"/>
<path d="M12.9687 25.8594C13.6165 25.8594 14.1406 25.3352 14.1406 24.6875V15.3125C14.1406 14.8387 13.8557 14.4107 13.4173 14.2299C12.9779 14.0479 12.4766 14.1486 12.1402 14.484L9.7964 16.8277C9.33867 17.2854 9.33867 18.0271 9.7964 18.4848C10.2541 18.9426 10.9958 18.9426 11.4535 18.4848L11.7969 18.1415V24.6875C11.7969 25.3352 12.321 25.8594 12.9687 25.8594Z" fill="white"/>
<path d="M18.1255 20.2346C16.8723 21.1741 15.3125 22.3438 15.3125 24.6875C15.3125 25.3352 15.8366 25.8594 16.4844 25.8594H21.1719C21.8196 25.8594 22.3438 25.3352 22.3438 24.6875C22.3438 24.0398 21.8196 23.5156 21.1719 23.5156H18.0284C18.3422 23.0469 18.8366 22.6302 19.5309 22.1091C20.7839 21.1696 22.3438 20 22.3438 17.6562C22.3438 15.7177 20.7667 14.1406 18.8281 14.1406C16.8895 14.1406 15.3125 15.7177 15.3125 17.6562C15.3125 18.304 15.8366 18.8281 16.4844 18.8281C17.1321 18.8281 17.6562 18.304 17.6562 17.6562C17.6562 17.0097 18.1816 16.4844 18.8281 16.4844C19.4747 16.4844 20 17.0097 20 17.6562C20 18.7732 19.3225 19.3362 18.1255 20.2346Z" fill="white"/>
<path d="M29.375 25.8594C30.0227 25.8594 30.5469 25.3352 30.5469 24.6875V22.3438C30.5469 20.4052 28.9698 18.8281 27.0312 18.8281C26.6184 18.8281 26.2277 18.9127 25.8594 19.044V17.6562C25.8594 17.0085 25.3352 16.4844 24.6875 16.4844C24.0398 16.4844 23.5156 17.0085 23.5156 17.6562V22.3438V24.6875C23.5156 25.3352 24.0398 25.8594 24.6875 25.8594C25.3352 25.8594 25.8594 25.3352 25.8594 24.6875V22.3438C25.8594 21.6972 26.3847 21.1719 27.0312 21.1719C27.6778 21.1719 28.2031 21.6972 28.2031 22.3438V24.6875C28.2031 25.3352 28.7273 25.8594 29.375 25.8594Z" fill="white"/>
</g>
<defs>
<clipPath id="clip0_3127_25">
<rect width="40" height="40" fill="white"/>
</clipPath>
</defs>
</svg>
