<svg width="41" height="47" viewBox="0 0 41 47" fill="none" xmlns="http://www.w3.org/2000/svg">
<path fill-rule="evenodd" clip-rule="evenodd" d="M16.8055 5.75608C11.7766 5.75608 7.69947 9.83316 7.69947 14.8621C7.69947 19.8911 11.7766 23.9682 16.8055 23.9682C19.7063 23.9682 22.2889 22.6117 23.9571 20.4995C24.3683 20.3943 24.7832 20.2732 25.2 20.1362C26.2571 19.7888 27.3367 19.3382 28.4378 18.7834V19.2603C28.4378 19.4724 28.6115 19.6452 28.8227 19.6452H30.659C31.1884 19.6452 31.6221 19.2115 31.6221 18.682V15.416C31.6221 14.8866 31.1884 14.4528 30.659 14.4528H28.8227C28.6106 14.4528 28.4378 14.6265 28.4378 14.8377V17.0945C25.8543 18.4867 23.0315 19.4743 20.2396 19.5128C19.7974 19.5184 19.4454 19.2603 19.4397 18.7881C19.435 18.375 19.7655 18.0361 20.1785 18.0314C21.9885 18.007 23.8641 17.5752 25.6901 16.8645C26.964 11.1962 22.6635 5.75608 16.8055 5.75608ZM4.78741 14.4538H2.95212C2.42265 14.4538 1.98894 14.8875 1.98894 15.417V18.6829C1.98894 19.2124 2.42265 19.6461 2.95212 19.6461H4.78835C5.00051 19.6461 5.17324 19.4724 5.17324 19.2612V14.8396C5.17231 14.6265 4.99957 14.4538 4.78741 14.4538ZM7.65723 3.97429C12.9594 -0.491432 20.6507 -0.491432 25.9529 3.97429C26.2815 4.25123 26.3866 4.69151 26.2195 5.08674L25.6619 6.40289C25.5173 6.74273 25.0808 6.83191 24.8151 6.57469C20.3297 2.23757 13.2805 2.23757 8.79596 6.57469C8.53028 6.83097 8.09376 6.74273 7.94919 6.40289L7.39156 5.08674C7.22352 4.69151 7.32866 4.25029 7.65723 3.97429ZM32.5741 47C28.0191 47 24.326 43.3069 24.326 38.752C24.326 34.197 28.0191 30.5039 32.5741 30.5039C37.129 30.5039 40.8221 34.197 40.8221 38.752C40.8221 43.3078 37.1299 47 32.5741 47ZM35.6157 35.2813L31.1884 39.7499L29.5193 38.123C29.0565 37.6724 28.3149 37.6827 27.8642 38.1455C27.4136 38.6083 27.424 39.3499 27.8868 39.8006L30.3867 42.2367C30.8458 42.6835 31.5799 42.6779 32.0324 42.2235L37.2745 36.9317C37.7298 36.4736 37.7279 35.7329 37.2698 35.2766C36.8117 34.8213 36.071 34.8232 35.6157 35.2813ZM3.29946 12.9517C3.65619 10.433 4.70761 8.13117 6.25095 6.24518C6.46499 6.75118 6.63491 7.29097 7.0414 7.67399C5.91206 9.2023 5.131 11.001 4.81839 12.9517H3.29946ZM27.3601 6.24518C28.9035 8.13023 29.9549 10.433 30.3116 12.9517H28.7927C28.481 11.0019 27.7 9.2023 26.5697 7.67399C26.9752 7.29097 27.1451 6.75118 27.3601 6.24518ZM0.00344015 40.4333C-0.0481922 41.1195 0.487845 41.6969 1.17596 41.6969H23.2774C21.7566 36.8913 24.1523 31.7713 28.7063 29.7998C25.6525 26.7451 21.4402 24.8478 16.8055 24.8478C7.96327 24.8478 0.654946 31.7506 0.00344015 40.4333Z" fill="white"/>
</svg>
